<svg xmlns="http://www.w3.org/2000/svg" viewBox="0 0 2400 900" width="2400" height="900" role="img" aria-labelledby="title desc">
  <title id="title">Stash plushie belly patch</title>
  <desc id="desc">A cream patch with a navy stitched border and a path-based stash wordmark for orange plushie merch.</desc>
  <g>
    <path
      d="M405 170
         C560 86 805 58 1200 58
         C1595 58 1840 86 1995 170
         C2162 260 2230 392 2230 450
         C2230 508 2162 640 1995 730
         C1840 814 1595 842 1200 842
         C805 842 560 814 405 730
         C238 640 170 508 170 450
         C170 392 238 260 405 170Z"
      fill="#FFF7ED"
      stroke="#0F172A"
      stroke-width="34"
      stroke-linejoin="round"
    />
    <path
      d="M465 222
         C612 154 846 132 1200 132
         C1554 132 1788 154 1935 222
         C2075 287 2145 389 2145 450
         C2145 511 2075 613 1935 678
         C1788 746 1554 768 1200 768
         C846 768 612 746 465 678
         C325 613 255 511 255 450
         C255 389 325 287 465 222Z"
      fill="none"
      stroke="#FDBA74"
      stroke-width="20"
      stroke-linecap="round"
      stroke-linejoin="round"
      stroke-dasharray="3 54"
    />
  </g>

  <g
    fill="none"
    stroke="#0F172A"
    stroke-width="72"
    stroke-linecap="round"
    stroke-linejoin="round"
  >
    <path d="M650 392 C596 345 502 359 487 426 C474 487 565 489 621 520 C704 566 648 633 532 612"/>
    <path d="M807 286 L807 612"/>
    <path d="M725 394 L897 394"/>
    <path d="M1170 503 C1147 591 1023 635 958 561 C896 489 932 386 1022 378 C1118 369 1177 445 1170 503Z"/>
    <path d="M1186 388 L1186 612"/>
    <path d="M1446 392 C1392 345 1298 359 1283 426 C1270 487 1361 489 1417 520 C1500 566 1444 633 1328 612"/>
    <path d="M1621 286 L1621 612"/>
    <path d="M1630 464 C1669 389 1812 380 1840 487 L1840 612"/>
  </g>
</svg>
